<svg viewBox="272.7954 116.9597 344.4091 291.0806" width="5000" height="4225.7971697031235" xmlns="http://www.w3.org/2000/svg" xmlns:xlink="http://www.w3.org/1999/xlink" preserveAspectRatio="none"><defs></defs><style>.companyName {fill:#E3E3E3;fill-opacity:1;}.icon1 {fill:#F1EC40;fill-opacity:1;}.icon2 {fill:#555555;fill-opacity:1;}.icon3 {fill:#AAAAAA;fill-opacity:1;}.icon3-str {stroke:#AAAAAA;stroke-opacity:1;}</style><g opacity="1" transform="rotate(0 272.7954 348.0403)">
<svg width="344.4091" height="60" x="272.7954" y="348.0403" version="1.1" preserveAspectRatio="none" viewBox="2.8711 -28.3984 165.2539 28.7891">
  <g transform="matrix(1 0 0 1 0 0)" class="companyName"><path id="id-D6z1nYkh6" d="M30.86-18.59L30.86-16.29Q30.86-14.55 30.43-13.18Q30-11.82 29.27-10.77Q28.54-9.73 27.58-8.98Q26.62-8.24 25.58-7.77Q24.53-7.30 23.47-7.09Q22.40-6.88 21.46-6.88L21.46-6.88L9.98-6.88L9.98-11.95L21.46-11.95Q22.44-12.03 23.23-12.35Q24.02-12.68 24.59-13.22Q25.16-13.77 25.47-14.54Q25.78-15.31 25.78-16.29L25.78-16.29L25.78-18.59Q25.68-19.55 25.37-20.35Q25.06-21.15 24.52-21.72Q23.98-22.29 23.22-22.61Q22.46-22.93 21.46-22.93L21.46-22.93L10.02-22.93Q9.00-22.93 8.48-22.40Q7.95-21.88 7.95-20.88L7.95-20.88L7.95 0L2.87 0L2.87-20.88Q2.87-22.83 3.58-24.20Q4.30-25.57 5.36-26.41Q6.43-27.25 7.68-27.63Q8.93-28.01 9.98-28.01L9.98-28.01L21.46-28.01Q23.18-28.01 24.55-27.57Q25.92-27.13 26.96-26.40Q28.01-25.66 28.74-24.71Q29.47-23.75 29.95-22.71Q30.43-21.66 30.64-20.60Q30.86-19.53 30.86-18.59L30.86-18.59Z M60.92-5.08L60.92 0L37.75 0Q37.21 0 36.74-0.20Q36.27-0.39 35.93-0.73Q35.59-1.07 35.39-1.54Q35.20-2.01 35.20-2.56L35.20-2.56L35.20-28.01L40.27-28.01L40.27-5.08L60.92-5.08Z M92.13-25.45L92.13 0L87.05 0L87.05-6.88L69.20-6.88L69.20 0L64.12 0L64.12-14.00Q64.12-17.07 65.18-19.65Q66.23-22.23 68.11-24.08Q69.98-25.94 72.54-26.97Q75.10-28.01 78.13-28.01L78.13-28.01L89.57-28.01Q90.10-28.01 90.57-27.81Q91.04-27.62 91.39-27.27Q91.74-26.91 91.93-26.45Q92.13-25.98 92.13-25.45L92.13-25.45ZM69.20-14.00L69.20-11.95L87.05-11.95L87.05-22.93L78.13-22.93Q77.89-22.93 77.14-22.86Q76.39-22.79 75.40-22.52Q74.41-22.25 73.32-21.68Q72.23-21.11 71.31-20.12Q70.39-19.12 69.79-17.63Q69.20-16.13 69.20-14.00L69.20-14.00Z M126.02-28.01L126.02-2.17Q126.02-1.62 125.81-1.15Q125.61-0.68 125.26-0.34Q124.92 0 124.45 0.20Q123.98 0.39 123.46 0.39L123.46 0.39Q122.99 0.39 122.51 0.21Q122.03 0.04 121.66-0.35L121.66-0.35L103.11-19.73L103.11 0L98.03 0L98.03-25.84Q98.03-26.62 98.47-27.26Q98.91-27.89 99.59-28.20L99.59-28.20Q100.31-28.50 101.07-28.35Q101.84-28.20 102.38-27.64L102.38-27.64L120.94-8.28L120.94-28.01L126.02-28.01Z M146.88-14.00L161.27 0L154.06 0L142.64-11.45L139.06-11.45L139.06-16.56L142.64-16.56L154.06-28.01L161.27-28.01L146.88-14.00ZM137.03-28.01L137.03 0L131.95 0L131.95-28.01L137.03-28.01Z M168.13-2.56L168.13-2.56Q168.13-2.03 167.92-1.57Q167.71-1.11 167.37-0.77Q167.03-0.43 166.57-0.23Q166.11-0.04 165.61-0.04L165.61-0.04Q165.08-0.04 164.62-0.23Q164.16-0.43 163.82-0.77Q163.48-1.11 163.28-1.57Q163.09-2.03 163.09-2.56L163.09-2.56Q163.09-3.07 163.28-3.53Q163.48-3.98 163.82-4.33Q164.16-4.67 164.62-4.87Q165.08-5.08 165.61-5.08L165.61-5.08Q166.11-5.08 166.57-4.87Q167.03-4.67 167.37-4.33Q167.71-3.98 167.92-3.53Q168.13-3.07 168.13-2.56Z"/></g>
</svg>
</g><g opacity="1" transform="rotate(0 358.8977 116.9597)">
<svg width="172.2046" height="201.0806" x="358.8977" y="116.9597" version="1.1" preserveAspectRatio="none" viewBox="12.174365997314451 5.838470935821533 75.63946533203125 88.32301330566406">
  <g transform="matrix(1 0 0 1 0 0)" class="icon1"><title>crystal-01-01-01-01-01-01-01-01-01-01-01-01</title><g><path d="M52.43187,94.16148c-2.61911-1.509-5.37983-2.97585-8.01288-4.64436-4.41021-2.79464-8.71522-5.755-13.1189-8.56022a6.49276,6.49276,0,0,1-2.33174-2.65229c-2.43772-4.70443-4.92708-9.38209-7.36068-14.08858-0.81044-1.56727-1.48723-3.203-2.26559-4.78759-2.15622-4.38946-4.28857-8.79175-6.52694-13.13926A4.67368,4.67368,0,0,1,12.7,41.77384c1.41985-3.13259,2.44653-6.44081,3.76565-9.62254,0.91736-2.21272,2.1102-4.31,3.07028-6.50669,0.99059-2.26654,1.8485-4.59109,2.74873-6.85083,1.98693-.78812,4.04158-1.48143,5.9907-2.399,5.92148-2.78744,12.21443-4.47876,18.45227-6.31342,5.00389-1.47184,10.07678-2.70924,15.1195-4.04916,1.572-.41766,1.96641-0.23086,2.94345,1.265,1.0071,1.54172,1.73778,3.49893,3.1429,4.48857,1.92106,1.35314,1.63749,4.20874,3.98218,5.035,3.85484,6.2799,7.65909,12.59164,11.58688,18.82558A23.36038,23.36038,0,0,1,86.80537,45.012c0.23655,1.66175.90113,3.27883,1.00275,4.93869A15.345,15.345,0,0,1,87.2628,54.445c-0.87525,3.57936-1.89,7.12458-2.84857,10.68358a0.8978,0.8978,0,0,0-.058.23348c0.07245,4.12976-1.96992,7.32047-4.466,10.36286a32.386,32.386,0,0,0-2.06987,3.49447,3.31768,3.31768,0,0,1-1.09473,1.16205c-6.82857,3.73866-13.687,7.42282-20.5106,11.17051C55.034,92.20054,53.98129,93.0826,52.43187,94.16148ZM79.68354,66.85617c0.68621,0.50757,1.37238,1.01519,2.23,1.64948,0.24173-.75851.43566-1.26256,0.56228-1.783,0.47182-1.93947.88942-3.89266,1.38761-5.82515,0.63736-2.47236,1.43552-4.90762,1.9702-7.40056a10.30434,10.30434,0,0,0-.5495-5.67171,61.14422,61.14422,0,0,0-1.926,7.19921c-0.732,3.35569-1.39961,6.72594-2.17246,10.072-0.17932.77647-.22427,1.87-1.52042,1.78385a3.09326,3.09326,0,0,1-.00212-0.72119c1.47942-6.33395,2.75844-12.72568,4.54184-18.97333,0.97687-3.42218-.00039-6.29786-1.15223-9.27288A29.17713,29.17713,0,0,0,81.076,34.44757c-0.53825,1.88726-.97788,3.16667-1.2644,4.47948Q78.117,46.69142,76.50788,54.47447c-0.40851,1.96423-.758,3.94152-1.09584,5.91941a3.30846,3.30846,0,0,0,1.60341,3.39942c0.88785-4.23814,1.76031-8.149,2.51536-12.08246,0.68149-3.55024,1.22441-7.12687,1.85234-10.68771,0.1308-.74161.10782-1.62182,1.09663-1.92246a1.448,1.448,0,0,1,.50417,2.10211,9.83851,9.83851,0,0,0-.92283,2.39684c-1.11007,5.67634-2.16754,11.36294-3.229,17.0487-0.19131,1.02479-.33081,2.05955-0.48007,3.09176A2.96579,2.96579,0,0,0,79.68354,66.85617Zm-40.307-36.595c-0.51359.04351-.915,0.06838-1.31415,0.11267-2.63166.29194-2.88288,0.54762-3.3045,3.21759-0.16281,1.03131-.38006,2.05387-0.55743,3.08306-0.81662,4.73979-2.01191,9.43753-1.46542,14.32323a20.47363,20.47363,0,0,1-.02421,2.89286C32.47,61.59978,32.25778,69.31023,31.9529,77.017a4.05522,4.05522,0,0,0,2.1768,3.9414c2.25042,1.39983,4.41277,2.94038,6.64786,4.36575,2.91165,1.85669,5.86726,3.64434,8.78561,5.49071a4.02714,4.02714,0,0,0,4.923-.17715A37.50373,37.50373,0,0,1,58.14274,88.331C63.622,85.30136,69.103,82.27357,74.63128,79.3352a2.9253,2.9253,0,0,0,1.76025-2.60182c0.21374-2.72307.55459-5.43761,0.70251-8.16325a4.464,4.464,0,0,0-.69475-2.189c-0.99863-1.82574-2.11037-3.58917-3.14765-5.39433q-2.87356-5.00074-5.71254-10.0214c-1.94-3.41521-3.94944-6.794-5.78516-10.26458-1.57541-2.97836-2.96826-6.0545-4.40139-9.10644a2.54445,2.54445,0,0,0-2.70884-1.5188C49.51832,30.1879,44.40388,31.22256,39.37656,30.2612ZM24.72709,19.74974a2.22,2.22,0,0,0,.27543.55386c2.87752,2.672,5.7397,5.36165,8.669,7.97612a3.23716,3.23716,0,0,0,1.92508.76369c3.83677,0.08238,7.67727.12907,11.5137,0.04959,3.1882-.0661,6.37243-0.32272,9.43385-0.48821,1.29045-2.91918,4.78486-18.72741,4.5714-20.43368C54.402,8.56456,33.19343,15.29486,24.72709,19.74974ZM13.625,44.36327c1.08391,2.3043,2,4.41623,3.05751,6.4547,1.10248,2.1252,2.34128,4.17963,3.50234,6.23282,0.69726,0.1086,1.373.21385,2.46186,0.38346-0.68628.83966-1.13734,1.39163-1.72746,2.11366,2.99961,5.53734,6.03615,11.14284,9.07264,16.74835a5.54306,5.54306,0,0,0,.1352-2.50727,2.31,2.31,0,0,1-.16806-0.87832c1.1654-2.67276.80034-5.4998,0.85941-8.27581,0.121-5.69012-.0261-11.39512.34236-17.06767,0.26912-4.14192,1.19156-8.241,1.80974-12.361,0.12209-.8135.18489-1.63593,0.29159-2.604a36.89351,36.89351,0,0,0-10.02351,6.61919c-0.7429.78266-1.34283,1.90717-2.78483,1.31a1.296,1.296,0,0,0-.89187.264C17.64451,41.92957,15.74114,43.08738,13.625,44.36327ZM71.351,19.95082a10.947,10.947,0,0,0-.439,1.03661A190.33245,190.33245,0,0,0,65.43671,42.5918a4.16708,4.16708,0,0,0,1.4966,3.98709c0.23772-.72192.4731-1.28928,0.61048-1.87945,0.56262-2.417,1.09462-4.84114,1.63923-7.2624,1.105-4.91248,2.17567-9.8331,3.34158-14.73113A2.13562,2.13562,0,0,0,71.351,19.95082Zm2.308,3.43133c-0.225.69877-.43405,1.22173-0.56167,1.76388-1.1379,4.83439-2.288,9.66621-3.37812,14.51142-0.54515,2.42316-1.0288,4.86356-1.43045,7.31422-0.19572,1.19423-.42385,2.51932,1.05853,3.40444,0.42223-1.83171.77223-3.55627,1.22012-5.25511,1.51082-5.73111,3.00632-11.46719,4.61781-17.17024A3.77805,3.77805,0,0,0,73.659,23.38214ZM72.23823,55.256a8.00774,8.00774,0,0,0,.46886-1.11671q2.42754-11.02714,4.82134-22.06163a9.78081,9.78081,0,0,0,.24464-2.62368,7.55286,7.55286,0,0,0-.915-2.003,22.07237,22.07237,0,0,0-.93342,2.22884c-1.15452,4.25515-2.34876,8.5016-3.38838,12.78525-0.6971,2.87244-1.1176,5.81087-1.74726,8.70122A4.13949,4.13949,0,0,0,72.23823,55.256Zm-3.28508-38.7831a12.61424,12.61424,0,0,0-1.20561,2.29086,137.12451,137.12451,0,0,0-4.40279,20.46257,2.39439,2.39439,0,0,0,.87837,2.54007,4.13976,4.13976,0,0,0,.38915-0.79844,216.29855,216.29855,0,0,1,5.57706-21.68782C70.55345,18.07555,70.14867,17.29016,68.95315,16.47292Zm9.956,15.05608c-0.18457.54131-.34252,0.90659-0.43405,1.28777C77.31324,37.65741,76.081,42.48315,75.03566,47.349c-0.63976,2.97808-1.03428,6.0125-1.43777,9.03515a10.21793,10.21793,0,0,0,.26327,2.45613,46.05,46.05,0,0,0,2.452-8.13436C77.529,45.13623,78.6757,39.55147,79.856,33.974A1.86133,1.86133,0,0,0,78.90918,31.529ZM61.75271,37.46554l0.39373,0.00474c0.09872-.37131.21174-0.73949,0.29405-1.11436,1.54881-7.05051,2.83536-14.168,5.28808-20.98888,0.34281-.95328-0.014-1.50893-0.91474-2.10094a63.77048,63.77048,0,0,0-2.01778,6.15183c-1.1514,5.16827-2.14913,10.37168-3.14157,15.57374A10.74754,10.74754,0,0,0,61.75271,37.46554Zm3.67992-26.07231c-2.347,2.13156-6.09662,18.44056-4.94019,21.983C62.17517,25.88841,63.79325,18.688,65.43264,11.39322ZM81.31947,70.59488c-0.86-.6049-1.47235-1.03577-2.45083-1.72411-0.2201,1.93071-.39764,3.48777-0.57512,5.04483l0.54511,0.18618C79.59328,73.035,80.34788,71.96827,81.31947,70.59488ZM63.76408,9.16294l-0.601-.1564-1.29447,5.12314,0.39251,0.098Q63.01259,11.69531,63.76408,9.16294ZM59.41523,26.66081l-0.55754-.06108-0.32562,3.439,0.35413,0.03614Q59.15065,28.36783,59.41523,26.66081Zm1.45309-6.72053L60.483,19.85181q-0.28063,1.30877-.56118,2.61754l0.29495,0.064Z"></path><path d="M23.15274,61.00849c1.18988-.63976,2.37976-1.27957,3.91552-2.10535-0.36295,1.06829-.62181,1.83031-0.91235,2.68565-0.98273-.05812-1.9292-0.11406-2.87568-0.17006Z"></path><path d="M29.455,69.0149c0.2318,1.09819.39713,1.88146,0.61554,2.91651a3.09333,3.09333,0,0,1-1.14772-.2419C28.7231,70.89452,27.93246,69.99272,29.455,69.0149Z"></path><path d="M24.40609,50.36378l1.83059-.82371c-0.45313,1.215-.7502,1.73527-1.57123,1.438Z"></path><path d="M20.45169,52.02041a1.77729,1.77729,0,0,1,.27955.84161,1.15478,1.15478,0,0,1-.6682.75259,0.95736,0.95736,0,0,1-.76632-0.57779,2.37557,2.37557,0,0,1,.44677-1.00861Q20.09757,52.02428,20.45169,52.02041Z"></path><path d="M27.46,43.77684c0.32607,0.27587.591,0.5,0.85589,0.7242a2.171,2.171,0,0,1-.51616.51733,2.68365,2.68365,0,0,1-.77931-0.654A3.758,3.758,0,0,1,27.46,43.77684Z"></path><path d="M17.17119,46.21952l-2.044-.55961C16.5587,45.139,16.5587,45.139,17.17119,46.21952Z"></path><path d="M26.36062,66.77708q0.65359,0.099,1.30713.1979l-0.19695.79493q-0.635-.19293-1.27015-0.38581Z"></path><path d="M27.80122,47.91524l1.22592,0.14424q-0.09773.40929-.19539,0.81858-0.58574-.17787-1.17148-0.35563Z"></path><path d="M22.79187,53.38259a12.28734,12.28734,0,0,1-1.07075.748,1.71244,1.71244,0,0,1-.39468-0.44192c0.28468-.32417.60774-0.6146,0.922-0.91279Z"></path><path d="M29.95487,56.56292a2.31215,2.31215,0,0,1-.80586.594,1.12041,1.12041,0,0,1-.52921-0.59419,0.66281,0.66281,0,0,1,.39445-0.40215A3.39812,3.39812,0,0,1,29.95487,56.56292Z"></path><path d="M19.77568,49.962a2.53148,2.53148,0,0,1-1.00376.413,1.67884,1.67884,0,0,1-.54962-0.62548,1.76583,1.76583,0,0,1,.71478-0.40583A2.47655,2.47655,0,0,1,19.77568,49.962Z"></path><path d="M24.26855,57.52144q-0.50609-.30145-1.01224-0.60289a1.285,1.285,0,0,1,.24536-0.35329c0.36154,0.1038.70937,0.25523,1.06137,0.39217Z"></path><path d="M26.73756,56.34734c-0.64935-.74551-0.84172-0.96639-1.0341-1.18721a2.78348,2.78348,0,0,1,.84051-0.534,0.97211,0.97211,0,0,1,.48436.65036A3.274,3.274,0,0,1,26.73756,56.34734Z"></path><path d="M29.54882,65.827c-0.39925-.45938-0.62269-0.71651-0.84613-0.97364a1.4422,1.4422,0,0,1,.61605-0.46345,0.93408,0.93408,0,0,1,.62431.53317A2.20945,2.20945,0,0,1,29.54882,65.827Z"></path><path d="M31.24326,37.09484a1.71269,1.71269,0,0,1-.39707-0.649,1.13679,1.13679,0,0,1,.41609-0.42284,0.82536,0.82536,0,0,1,.283.33444A3.09772,3.09772,0,0,1,31.24326,37.09484Z"></path><path d="M30.56122,42.43981a3.97323,3.97323,0,0,1-1.023.3423,1.12365,1.12365,0,0,1-.44409-0.38363,1.56707,1.56707,0,0,1,.58-0.54432A2.44246,2.44246,0,0,1,30.56122,42.43981Z"></path><path d="M29.35086,50.65276a10.31178,10.31178,0,0,1,.26361-1.11057,3.421,3.421,0,0,1,.59184.09588q-0.12341.584-.24676,1.16808Q29.65518,50.72943,29.35086,50.65276Z"></path></g></g>
</svg>
</g></svg>